<svg width="22" height="22" viewBox="0 0 22 22" fill="none" xmlns="http://www.w3.org/2000/svg">
<mask id="path-1-inside-1_502_1638" fill="white">
<rect x="2.02393" y="2.22903" width="17.8405" height="17.7801" rx="1"/>
</mask>
<rect x="2.02393" y="2.22903" width="17.8405" height="17.7801" rx="1" fill="white" stroke="#1C1B37" stroke-width="3" mask="url(#path-1-inside-1_502_1638)"/>
<mask id="path-2-inside-2_502_1638" fill="white">
<ellipse cx="19.6618" cy="2.33351" rx="1.33804" ry="1.33351"/>
</mask>
<ellipse cx="19.6618" cy="2.33351" rx="1.33804" ry="1.33351" fill="white"/>
<path d="M19.4998 2.33351C19.4998 2.23677 19.5771 2.16702 19.6618 2.16702V5.16702C21.2244 5.16702 22.4998 3.90321 22.4998 2.33351H19.4998ZM19.6618 2.16702C19.7464 2.16702 19.8237 2.23677 19.8237 2.33351H16.8237C16.8237 3.90321 18.0992 5.16702 19.6618 5.16702V2.16702ZM19.8237 2.33351C19.8237 2.43025 19.7464 2.5 19.6618 2.5V-0.5C18.0992 -0.5 16.8237 0.763816 16.8237 2.33351H19.8237ZM19.6618 2.5C19.5771 2.5 19.4998 2.43025 19.4998 2.33351H22.4998C22.4998 0.763816 21.2244 -0.5 19.6618 -0.5V2.5Z" fill="#1C1B37" mask="url(#path-2-inside-2_502_1638)"/>
<mask id="path-4-inside-3_502_1638" fill="white">
<ellipse cx="19.6618" cy="19.6665" rx="1.33804" ry="1.33351"/>
</mask>
<ellipse cx="19.6618" cy="19.6665" rx="1.33804" ry="1.33351" fill="white"/>
<path d="M19.4998 19.6665C19.4998 19.5697 19.5771 19.5 19.6618 19.5V22.5C21.2244 22.5 22.4998 21.2362 22.4998 19.6665H19.4998ZM19.6618 19.5C19.7464 19.5 19.8237 19.5697 19.8237 19.6665H16.8237C16.8237 21.2362 18.0992 22.5 19.6618 22.5V19.5ZM19.8237 19.6665C19.8237 19.7632 19.7464 19.833 19.6618 19.833V16.833C18.0992 16.833 16.8237 18.0968 16.8237 19.6665H19.8237ZM19.6618 19.833C19.5771 19.833 19.4998 19.7632 19.4998 19.6665H22.4998C22.4998 18.0968 21.2244 16.833 19.6618 16.833V19.833Z" fill="#1C1B37" mask="url(#path-4-inside-3_502_1638)"/>
<ellipse cx="2.53316" cy="2.59603" rx="1.53316" ry="1.52798" fill="white" stroke="#1C1B37" stroke-width="1.5"/>
<ellipse cx="19.3974" cy="2.59603" rx="1.53316" ry="1.52798" fill="white" stroke="#1C1B37" stroke-width="1.5"/>
<ellipse cx="19.3974" cy="19.4038" rx="1.53316" ry="1.52798" fill="white" stroke="#1C1B37" stroke-width="1.5"/>
<ellipse cx="2.53316" cy="19.4038" rx="1.53316" ry="1.52798" fill="white" stroke="#1C1B37" stroke-width="1.5"/>
</svg>
